2014014_C4_04_grf
inDegrees=no
nColumns=19
nRows=108
DataType=double
version=3
OpenSimVersion=4.5-2023-11-26-efcdfd3eb
endheader
time	ground_force_1_vx	ground_force_1_vy	ground_force_1_vz	ground_force_1_px	ground_force_1_py	ground_force_1_pz	ground_force_1_mx	ground_force_1_my	ground_force_1_mz	ground_force_2_vx	ground_force_2_vy	ground_force_2_vz	ground_force_2_px	ground_force_2_py	ground_force_2_pz	ground_force_2_mx	ground_force_2_my	ground_force_2_mz
0	0	0	0	0	0	0	0	0	0	0	0	0	0	0	0	0	0	0
0.001	0	0	0	0	0	0	0	0	0	0	0	0	0	0	0	0	0	0
0.002	0	0	0	0	0	0	0	0	0	0	0	0	0	0	0	0	0	0
0.003	0	0	0	0	0	0	0	0	0	0	0	0	0	0	0	0	0	0
0.004	0	0	0	0	0	0	0	0	0	0	0	0	0	0	0	0	0	0
0.005	0	0	0	0	0	0	0	0	0	0	0	0	0	0	0	0	0	0
0.006	0	0	0	0	0	0	0	0	0	0	0	0	0	0	0	0	0	0
0.007	0	0	0	0	0	0	0	0	0	0	0	0	0	0	0	0	0	0
0.008	0	0	0	0	0	0	0	0	0	0	0	0	0	0	0	0	0	0
0.008999999999999999	0	0	0	0	0	0	0	0	0	0	0	0	0	0	0	0	0	0
0.01	0	0	0	0	0	0	0	0	0	0	0	0	0	0	0	0	0	0
0.011	0	0	0	0	0	0	0	0	0	0	0	0	0	0	0	0	0	0
0.012	0	0	0	0	0	0	0	0	0	0	0	0	0	0	0	0	0	0
0.013	0	0	0	0	0	0	0	0	0	0	0	0	0	0	0	0	0	0
0.014	0	0	0	0	0	0	0	0	0	0	0	0	0	0	0	0	0	0
0.015	0	0	0	0	0	0	0	0	0	0	0	0	0	0	0	0	0	0
0.016	0	0	0	0	0	0	0	0	0	0	0	0	0	0	0	0	0	0
0.017	0	0	0	0	0	0	0	0	0	0	0	0	0	0	0	0	0	0
0.018	0	0	0	0	0	0	0	0	0	0	0	0	0	0	0	0	0	0
0.019	0	0	0	0	0	0	0	0	0	0	0	0	0	0	0	0	0	0
0.02	0	0	0	0	0	0	0	0	0	0	0	0	0	0	0	0	0	0
0.021	0	0	0	0	0	0	0	0	0	0	0	0	0	0	0	0	0	0
0.022	0	0	0	0	0	0	0	0	0	0	0	0	0	0	0	0	0	0
0.023	0	0	0	0	0	0	0	0	0	0	0	0	0	0	0	0	0	0
0.024	0	0	0	0	0	0	0	0	0	0	0	0	0	0	0	0	0	0
0.025	0	0	0	0	0	0	0	0	0	0	0	0	0	0	0	0	0	0
0.026	0	0	0	0	0	0	0	0	0	0	0	0	0	0	0	0	0	0
0.027	0	0	0	0	0	0	0	0	0	0	0	0	0	0	0	0	0	0
0.028	0	0	0	0	0	0	0	0	0	0	0	0	0	0	0	0	0	0
0.029	0	0	0	0	0	0	0	0	0	0	0	0	0	0	0	0	0	0
0.03	0	0	0	0	0	0	0	0	0	0	0	0	0	0	0	0	0	0
0.031	0	0	0	0	0	0	0	0	0	0	0	0	0	0	0	0	0	0
0.032	0	0	0	0	0	0	0	0	0	0	0	0	0	0	0	0	0	0
0.033	0	0	0	0	0	0	0	0	0	0	0	0	0	0	0	0	0	0
0.034	0	0	0	0	0	0	0	0	0	0	0	0	0	0	0	0	0	0
0.035	0	0	0	0	0	0	0	0	0	0	0	0	0	0	0	0	0	0
0.036	0	0	0	0	0	0	0	0	0	0	0	0	0	0	0	0	0	0
0.037	0	0	0	0	0	0	0	0	0	0	0	0	0	0	0	0	0	0
0.038	0	0	0	0	0	0	0	0	0	0	0	0	0	0	0	0	0	0
0.039	0	0	0	0	0	0	0	0	0	0	0	0	0	0	0	0	0	0
0.04	0	0	0	0	0	0	0	0	0	0	0	0	0	0	0	0	0	0
0.041	0	0	0	0	0	0	0	0	0	0	0	0	0	0	0	0	0	0
0.042	0	0	0	0	0	0	0	0	0	0	0	0	0	0	0	0	0	0
0.043	0	0	0	0	0	0	0	0	0	0	0	0	0	0	0	0	0	0
0.044	0	0	0	0	0	0	0	0	0	0	0	0	0	0	0	0	0	0
0.045	0	0	0	0	0	0	0	0	0	0	0	0	0	0	0	0	0	0
0.046	0	0	0	0	0	0	0	0	0	0	0	0	0	0	0	0	0	0
0.047	0	0	0	0	0	0	0	0	0	0	0	0	0	0	0	0	0	0
0.048	0	0	0	0	0	0	0	0	0	0	0	0	0	0	0	0	0	0
0.049	0	0	0	0	0	0	0	0	0	0	0	0	0	0	0	0	0	0
0.05	0	0	0	0	0	0	0	0	0	0	0	0	0	0	0	0	0	0
0.051	0	0	0	0	0	0	0	0	0	0	0	0	0	0	0	0	0	0
0.052	0	0	0	0	0	0	0	0	0	0	0	0	0	0	0	0	0	0
0.053	0	0	0	0	0	0	0	0	0	0	0	0	0	0	0	0	0	0
0.054	0	0	0	0	0	0	0	0	0	0	0	0	0	0	0	0	0	0
0.055	0	0	0	0	0	0	0	0	0	0	0	0	0	0	0	0	0	0
0.056	-4.08676034	52.51031369	0	0.17427129	-0.002	-0.06861266805516421	0	0.05906665	0	0	0	0	0	0	0.1088863857955963	0	0	0
0.057	-4.43895371	57.87892733	0	0.17449266	-0.002	-0.06861266805516421	0	0.0660406	0	0	0	0	0	0	0.1088863857955963	0	0	0
0.058	-4.80636256	63.47237621	0	0.17470028	-0.002	-0.06861266805516421	0	0.07326568999999999	0	0	0	0	0	0	0.1088863857955963	0	0	0
0.059	-5.1932584	69.34045580999999	0	0.17489481	-0.002	-0.06861266805516421	0	0.08080756	0	0	0	0	0	0	0.1088863857955963	0	0	0
0.06	-5.59616042	75.42229258	0	0.17508159	-0.002	-0.06861266805516421	0	0.08860178	0	0	0	0	0	0	0.1088863857955963	0	0	0
0.061	-6.01966353	81.76282048	0	0.17526143	-0.002	-0.06861266805516421	0	0.09670500999999999	0	0	0	0	0	0	0.1088863857955963	0	0	0
0.062	-6.46018283	88.30283768	0	0.17543757	-0.002	-0.06861266805516421	0	0.10504635	0	0	0	0	0	0	0.1088863857955963	0	0	0
0.063	-6.92274282	95.08206043	0	0.17561107	-0.002	-0.06861266805516421	0	0.1136687	0	0	0	0	0	0	0.1088863857955963	0	0	0
0.064	-7.40362471	102.04401799	0	0.17578387	-0.002	-0.06861266805516421	0	0.12249974	0	0	0	0	0	0	0.1088863857955963	0	0	0
0.065	-7.90837244	109.22306683	0	0.17595739	-0.002	-0.06861266805516421	0	0.13156921	0	0	0	0	0	0	0.1088863857955963	0	0	0
0.066	-8.433054200000001	116.56636372	0	0.17613264	-0.002	-0.06861266805516421	0	0.14080885	0	0	0	0	0	0	0.1088863857955963	0	0	0
0.067	-8.983817419999999	124.1028076	0	0.17631131	-0.002	-0.06861266805516421	0	0.15022878	0	0	0	0	0	0	0.1088863857955963	0	0	0
0.068	-9.556453680000001	131.78376481	0	0.17649362	-0.002	-0.06861266805516421	0	0.15976251	0	0	0	0	0	0	0.1088863857955963	0	0	0
0.06900000000000001	-10.1577905	139.63250909	0	0.1766815	-0.002	-0.06861266805516421	0	0.16939372	0	0	0	0	0	0	0.1088863857955963	0	0	0
0.07000000000000001	-10.78323647	147.60504477	0	0.17687455	-0.002	-0.06861266805516421	0	0.17906332	0	0	0	0	0	0	0.1088863857955963	0	0	0
0.07099999999999999	-11.44033484	155.71907628	0	0.17707492	-0.002	-0.06861266805516421	0	0.1887269	0	0	0	0	0	0	0.1088863857955963	0	0	0
0.07199999999999999	-12.12401409	163.93560916	0	0.17728179	-0.002	-0.06861266805516421	0	0.1983375	0	0	0	0	0	0	0.1088863857955963	0	0	0
0.073	-12.8425383	172.2668577	0	0.17749756	-0.002	-0.06861266805516421	0	0.20781315	0	0	0	0	0	0	0.1088863857955963	0	0	0
0.074	-13.59025575	180.67909405	0	0.17772105	-0.002	-0.06861266805516421	0	0.21711982	0	0	0	0	0	0	0.1088863857955963	0	0	0
0.075	-14.37611785	189.17918205	0	0.17795497	-0.002	-0.06861266805516421	0	0.22613017	0	0	0	0	0	0	0.1088863857955963	0	0	0
0.076	-15.19381534	197.73885608	0	0.17819783	-0.002	-0.06861266805516421	0	0.23482986	0	0	0	0	0	0	0.1088863857955963	0	0	0
0.077	-16.05292223	206.35985769	0	0.17845254	-0.002	-0.06861266805516421	0	0.24304225	0	0	0	0	0	0	0.1088863857955963	0	0	0
0.078	-16.94641262	215.01952782	0	0.17871727	-0.002	-0.06861266805516421	0	0.2507815	0	0	0	0	0	0	0.1088863857955963	0	0	0
0.079	-17.88436994	223.71483967	0	0.17899511	-0.002	-0.06861266805516421	0	0.25782143	0	0	0	0	0	0	0.1088863857955963	0	0	0
0.08	-18.85901392	232.42870346	0	0.17928388	-0.002	-0.06861266805516421	0	0.26421443	0	0	0	0	0	0	0.1088863857955963	0	0	0
0.081	-19.88078561	241.1536593	0	0.17958681	-0.002	-0.06861266805516421	0	0.26968771	0	0	0	0	0	0	0.1088863857955963	0	0	0
0.082	-20.94116434	249.87814948	0	0.17990145	-0.002	-0.06861266805516421	0	0.27433428	0	0	0	0	0	0	0.1088863857955963	0	0	0
0.083	-22.05074485	258.59079324	0	0.18023116	-0.002	-0.06861266805516421	0	0.27783098	0	0	0	0	0	0	0.1088863857955963	0	0	0
0.08400000000000001	-23.20029959	267.28540659	0	0.18057328	-0.002	-0.06861266805516421	0	0.28031315	0	0	0	0	0	0	0.1088863857955963	0	0	0
0.08500000000000001	-24.40035809	275.94722807	0	0.18093134	-0.002	-0.06861266805516421	0	0.2814069	0	0	0	0	0	0	0.1088863857955963	0	0	0
0.08599999999999999	-25.64107999	284.57509354	0	0.18130249	-0.002	-0.06861266805516421	0	0.28129266	0	0	0	0	0	0	0.1088863857955963	0	0	0
0.08699999999999999	-26.93269681	293.15147549	0	0.1816904	-0.002	-0.06861266805516421	0	0.27954766	0	0	0	0	0	0	0.1088863857955963	0	0	0
0.08799999999999999	-28.26489881	301.67995021	0	0.18209203	-0.002	-0.06861266805516421	0	0.27640447	0	0	0	0	0	0	0.1088863857955963	0	0	0
0.089	-29.64739408	310.14078297	0	0.18251116	-0.002	-0.06861266805516421	0	0.2714016	0	0	0	0	0	0	0.1088863857955963	0	0	0
0.09	-31.06958792	318.54178756	0	0.18294452	-0.002	-0.06861266805516421	0	0.26482454	0	0	0	0	0	0	0.1088863857955963	0	0	0
0.091	-32.54047595	326.86153427	0	0.18339594	-0.002	-0.06861266805516421	0	0.25617666	0	0	0	0	0	0	0.1088863857955963	0	0	0
0.092	-34.04939547	335.11150628	0	0.18386195	-0.002	-0.06861266805516421	0	0.24579472	0	0	0	0	0	0	0.1088863857955963	0	0	0
0.093	-35.60446016	343.26899797	0	0.18434636	-0.002	-0.06861266805516421	0	0.23315684	0	0	0	0	0	0	0.1088863857955963	0	0	0
0.094	-37.19515353	351.34866834	0	0.18484555	-0.002	-0.06861266805516421	0	0.21865151	0	0	0	0	0	0	0.1088863857955963	0	0	0
0.095	-38.82853873	359.32682455	0	0.18536324	-0.002	-0.06861266805516421	0	0.201745	0	0	0	0	0	0	0.1088863857955963	0	0	0
0.096	-40.49444944	367.2208637	0	0.18589569	-0.002	-0.06861266805516421	0	0.18287379	0	0	0	0	0	0	0.1088863857955963	0	0	0
0.097	-42.19878092	375.00647828	0	0.18644649	-0.002	-0.06861266805516421	0	0.16150661	0	0	0	0	0	0	0.1088863857955963	0	0	0
0.098	-43.93193126	382.70309567	0	0.18701183	-0.002	-0.06861266805516421	0	0.13812232	0	0	0	0	0	0	0.1088863857955963	0	0	0
0.099	-45.69852911	390.28616622	0	0.18759512	-0.002	-0.06861266805516421	0	0.11221183	0	0	0	0	0	0	0.1088863857955963	0	0	0
0.1	-47.48972878	397.7766633	0	0.18819256	-0.002	-0.06861266805516421	0	0.08429333999999999	0	0	0	0	0	0	0.1088863857955963	0	0	0
0.101	-49.30884764	405.14968336	0	0.1888073	-0.002	-0.06861266805516421	-0	0.05390723	0	0	0	0	0	0	0.1088863857955963	0	0	0
0.102	-51.14796013	412.42741048	0	0.18943553	-0.002	-0.06861266805516421	0	0.02160023	0	0	0	0	0	0	0.1088863857955963	0	0	0
0.103	-53.00906114	419.58453134	0	0.19008012	-0.002	-0.06861266805516421	0	-0.01301549	0	0	0	0	0	0	0.1088863857955963	0	0	0
0.104	-54.88530546	426.64397508	0	0.1907373	-0.002	-0.06861266805516421	0	-0.04938563	0	0	0	0	0	0	0.1088863857955963	0	0	0
0.105	-56.77738413	433.57990682	0	0.19140956	-0.002	-0.06861266805516421	0	-0.08780883	0	0	0	0	0	0	0.1088863857955963	0	0	0
0.106	-58.67964029	440.41581452	0	0.19209328	-0.002	-0.06861266805516421	0	-0.12774679	0	0	0	0	0	0	0.1088863857955963	0	0	0
0.107	-60.59149466	447.12502509	0	0.19279051	-0.002	-0.06861266805516421	0	-0.16939887	0	0	0	0	0	0	0.1088863857955963	0	0	0
